# File created by Blade
# Date/Time:  Mon Sep 22 17:38:34 2014
# Frame Rate: 120.000 fps
#------------------------------------------------------
:FULLY-SPECIFIED
:DEGREES
2246
root 0.333286 37.163871 5.645300 -8.738467 24.746122 11.417208
RightUpLeg 20.768292 -14.534203 -4.482161
RightLeg -5.969944 -0.000000 0.000000
RightFoot -14.743666 -26.884418 9.472302
RightToeBase 7.331308 -0.000000 -0.000000
LeftUpLeg -16.520768 13.724117 27.677563
LeftLeg 3.950822 -0.000000 -0.000000
LeftFoot 16.134425 41.674655 -28.950964
LeftToeBase -2.010478 -0.000000 0.000000
Spine 23.584978 -9.065349 0.852982
RightShoulder 5.049076 -13.119636 -19.596542
RightArm 56.840281 -12.225003 55.325763
RightForeArm 1.231315 -0.000000 85.042351
RightHand 3.153232 -0.000000 -26.352737
RightHandThumb1 -24.326973 -0.000000 -32.862282
LeftShoulder -17.131539 38.654341 -10.224973
LeftArm 40.114344 4.460090 -64.919530
LeftForeArm 30.907522 -0.000000 82.550609
LeftHand -24.137844 -0.000000 9.363482
LeftHandThumb1 -26.253704 0.000000 33.147579
Head 15.329508 -0.678686 -7.985522
2247
root 0.347745 37.162440 5.651067 -8.963053 24.868539 11.437284
RightUpLeg 21.118861 -14.669376 -4.610869
RightLeg -6.106526 -0.000000 0.000000
RightFoot -14.694508 -26.929430 9.465062
RightToeBase 7.431956 -0.000000 -0.000000
LeftUpLeg -16.596565 14.210409 27.409834
LeftLeg 4.741264 -0.000000 -0.000000
LeftFoot 16.308363 41.416992 -28.727190
LeftToeBase -2.072807 -0.000000 0.000000
Spine 23.907640 -9.056539 0.882934
RightShoulder 4.905206 -13.175597 -19.482938
RightArm 56.893046 -12.079262 55.134123
RightForeArm 1.026723 -0.000000 85.105846
RightHand 2.993102 -0.000000 -26.698804
RightHandThumb1 -24.326973 -0.000000 -32.862282
LeftShoulder -17.223302 38.521527 -10.338276
LeftArm 40.311177 4.634439 -64.768421
LeftForeArm 30.946665 -0.000000 82.370524
LeftHand -24.155727 -0.000000 9.246762
LeftHandThumb1 -26.253704 0.000000 33.147579
Head 15.259783 -0.851311 -7.961445
2248
root 0.361061 37.162386 5.657744 -9.168787 24.928979 11.447083
RightUpLeg 21.408305 -14.814805 -4.735678
RightLeg -6.184690 -0.000000 0.000000
RightFoot -14.651640 -26.881110 9.435109
RightToeBase 7.474021 -0.000000 -0.000000
LeftUpLeg -16.641777 14.639385 27.207627
LeftLeg 5.601505 -0.000000 -0.000000
LeftFoot 16.513908 41.125893 -28.448145
LeftToeBase -2.039257 -0.000000 0.000000
Spine 24.186130 -9.009254 0.928302
RightShoulder 4.791108 -13.276613 -19.424361
RightArm 56.960103 -11.955298 55.029660
RightForeArm 0.647431 -0.000000 85.143843
RightHand 2.787815 -0.000000 -27.157688
RightHandThumb1 -24.326973 -0.000000 -32.862282
LeftShoulder -17.201163 38.306350 -10.347073
LeftArm 40.353924 4.818790 -64.696025
LeftForeArm 31.071833 -0.000000 82.212345
LeftHand -24.123582 -0.000000 9.068097
LeftHandThumb1 -26.253704 0.000000 33.147579
Head 15.255976 -0.993455 -7.916435
2249
root 0.372907 37.163102 5.663459 -9.335235 24.912986 11.453825
RightUpLeg 21.612966 -14.908204 -4.843024
RightLeg -6.198744 -0.000000 0.000000
RightFoot -14.654070 -26.765605 9.457157
RightToeBase 7.456449 -0.000000 -0.000000
LeftUpLeg -16.683964 15.126723 27.024219
LeftLeg 6.516970 -0.000000 -0.000000
LeftFoot 16.882087 40.763468 -27.982399
LeftToeBase -1.804457 -0.000000 0.000000
Spine 24.388468 -8.921057 1.003083
RightShoulder 4.741289 -13.302188 -19.466804
RightArm 56.874926 -11.878806 55.168414
RightForeArm 0.518824 -0.000000 85.186728
RightHand 2.832390 -0.000000 -27.139544
RightHandThumb1 -24.326973 -0.000000 -32.862282
LeftShoulder -17.269919 38.126914 -10.437043
LeftArm 40.510084 5.034894 -64.519409
LeftForeArm 31.204778 -0.000000 81.969757
LeftHand -24.070532 -0.000000 9.010139
LeftHandThumb1 -26.253704 0.000000 33.147579
Head 15.342525 -1.067585 -7.924778
